<svg xmlns="http://www.w3.org/2000/svg" xmlns:xlink="http://www.w3.org/1999/xlink" width="1280" zoomAndPan="magnify" viewBox="0 0 960 314.999992" height="420" preserveAspectRatio="xMidYMid meet" version="1.0"><defs><g/><clipPath id="b46939bb34"><path d="M 885.695312 210.488281 L 958.707031 210.488281 L 958.707031 283.5 L 885.695312 283.5 Z M 885.695312 210.488281 " clip-rule="nonzero"/></clipPath><clipPath id="b7d2cab393"><path d="M 922.203125 210.488281 C 902.039062 210.488281 885.695312 226.832031 885.695312 246.992188 C 885.695312 267.15625 902.039062 283.5 922.203125 283.5 C 942.363281 283.5 958.707031 267.15625 958.707031 246.992188 C 958.707031 226.832031 942.363281 210.488281 922.203125 210.488281 Z M 922.203125 210.488281 " clip-rule="nonzero"/></clipPath></defs><g fill="#000000" fill-opacity="1"><g transform="translate(-10.953744, 249.279445)"><g><path d="M 222.5 -114.171875 C 223.15625 -114.171875 223.484375 -113.847656 223.484375 -113.203125 C 223.484375 -112.335938 223.15625 -111.90625 222.5 -111.90625 C 218.59375 -111.90625 215.335938 -110.601562 212.734375 -108 C 210.140625 -105.394531 208.84375 -102.25 208.84375 -98.5625 L 208.84375 -32.203125 C 208.84375 -31.984375 208.734375 -31.765625 208.515625 -31.546875 C 198.535156 -20.492188 187.039062 -11.710938 174.03125 -5.203125 C 174.03125 -5.203125 173.921875 -5.203125 173.703125 -5.203125 C 173.492188 -5.203125 173.28125 -5.203125 173.0625 -5.203125 C 172.625 -5.421875 172.40625 -5.75 172.40625 -6.1875 L 172.40625 -98.5625 C 172.40625 -102.25 171.101562 -105.394531 168.5 -108 C 165.894531 -110.601562 162.75 -111.90625 159.0625 -111.90625 C 158.195312 -111.90625 157.765625 -112.335938 157.765625 -113.203125 C 157.765625 -113.847656 158.195312 -114.171875 159.0625 -114.171875 L 207.546875 -114.171875 C 207.546875 -114.171875 207.597656 -114.171875 207.703125 -114.171875 C 207.804688 -114.171875 207.859375 -114.171875 207.859375 -114.171875 Z M 126.546875 3.578125 C 127.191406 3.578125 127.515625 3.898438 127.515625 4.546875 C 127.515625 5.421875 127.191406 5.859375 126.546875 5.859375 C 110.929688 5.859375 96.34375 2.769531 82.78125 -3.40625 C 69.226562 -9.59375 57.25 -18.160156 46.84375 -29.109375 C 36.4375 -40.066406 28.300781 -52.753906 22.4375 -67.171875 C 16.582031 -81.597656 13.65625 -96.941406 13.65625 -113.203125 C 13.65625 -129.679688 16.582031 -145.128906 22.4375 -159.546875 C 28.300781 -173.972656 36.4375 -186.660156 46.84375 -197.609375 C 57.25 -208.566406 69.226562 -217.132812 82.78125 -223.3125 C 96.34375 -229.5 110.929688 -232.59375 126.546875 -232.59375 C 142.367188 -232.59375 157.4375 -229.226562 171.75 -222.5 C 171.75 -222.5 171.859375 -222.5 172.078125 -222.5 C 173.816406 -221.632812 175.769531 -220.550781 177.9375 -219.25 C 178.15625 -219.25 178.265625 -219.25 178.265625 -219.25 C 178.910156 -218.8125 179.453125 -218.488281 179.890625 -218.28125 L 180.859375 -217.625 C 188.671875 -213.289062 195.285156 -212.640625 200.703125 -215.671875 C 204.609375 -218.054688 206.5625 -221.632812 206.5625 -226.40625 C 206.5625 -227.050781 206.992188 -227.375 207.859375 -227.375 C 208.515625 -227.375 208.84375 -227.050781 208.84375 -226.40625 L 208.84375 -182.8125 C 208.84375 -182.164062 208.515625 -181.84375 207.859375 -181.84375 C 206.992188 -181.84375 206.5625 -182.164062 206.5625 -182.8125 C 206.5625 -185.632812 205.148438 -189.210938 202.328125 -193.546875 C 199.515625 -197.890625 195.882812 -202.175781 191.4375 -206.40625 C 186.988281 -210.632812 182.269531 -214.265625 177.28125 -217.296875 C 177.28125 -217.296875 177.175781 -217.40625 176.96875 -217.625 C 174.789062 -218.707031 172.835938 -219.679688 171.109375 -220.546875 C 170.890625 -220.546875 170.78125 -220.546875 170.78125 -220.546875 C 156.6875 -227.054688 141.941406 -230.3125 126.546875 -230.3125 C 116.566406 -230.3125 107.238281 -227.273438 98.5625 -221.203125 C 89.882812 -215.128906 82.1875 -206.722656 75.46875 -195.984375 C 68.75 -185.253906 63.546875 -172.835938 59.859375 -158.734375 C 56.171875 -144.640625 54.328125 -129.460938 54.328125 -113.203125 C 54.328125 -97.148438 56.171875 -82.078125 59.859375 -67.984375 C 63.546875 -53.890625 68.75 -41.472656 75.46875 -30.734375 C 82.1875 -20.003906 89.882812 -11.601562 98.5625 -5.53125 C 107.238281 0.539062 116.566406 3.578125 126.546875 3.578125 Z M 126.546875 3.578125 "/></g></g></g><g fill="#000000" fill-opacity="1"><g transform="translate(173.48142, 249.279445)"><g><path d="M 216.96875 -0.96875 C 217.625 -0.96875 217.953125 -0.644531 217.953125 0 C 217.953125 0.863281 217.625 1.296875 216.96875 1.296875 L 150.9375 1.296875 C 150.289062 1.296875 149.96875 0.863281 149.96875 0 C 149.96875 -0.644531 150.289062 -0.96875 150.9375 -0.96875 C 154.40625 -0.96875 156.898438 -2.160156 158.421875 -4.546875 C 160.148438 -7.148438 160.257812 -10.40625 158.75 -14.3125 L 137.28125 -68.640625 L 46.1875 -68.640625 L 24.390625 -13.984375 C 22.878906 -10.296875 22.988281 -7.148438 24.71875 -4.546875 C 26.457031 -2.160156 28.953125 -0.96875 32.203125 -0.96875 C 33.066406 -0.96875 33.5 -0.644531 33.5 0 C 33.5 0.644531 33.066406 0.96875 32.203125 0.96875 L 2.921875 0.96875 C 2.273438 0.96875 1.953125 0.644531 1.953125 0 C 1.953125 -0.644531 2.273438 -0.96875 2.921875 -0.96875 C 6.828125 -0.96875 10.675781 -2.320312 14.46875 -5.03125 C 18.269531 -7.75 20.929688 -11.0625 22.453125 -14.96875 L 44.5625 -69.9375 C 44.5625 -70.15625 44.5625 -70.265625 44.5625 -70.265625 C 44.78125 -70.484375 44.78125 -70.484375 44.5625 -70.265625 C 44.5625 -70.265625 44.671875 -70.375 44.890625 -70.59375 C 45.109375 -70.59375 45.21875 -70.59375 45.21875 -70.59375 C 45.21875 -70.59375 45.328125 -70.59375 45.546875 -70.59375 L 136.296875 -70.59375 L 90.765625 -185.09375 C 90.546875 -185.3125 90.546875 -185.53125 90.765625 -185.75 L 108.96875 -231.609375 C 108.96875 -231.609375 108.96875 -231.71875 108.96875 -231.9375 C 108.96875 -231.9375 109.078125 -231.9375 109.296875 -231.9375 C 109.296875 -232.15625 109.296875 -232.265625 109.296875 -232.265625 C 109.296875 -232.265625 109.40625 -232.265625 109.625 -232.265625 C 109.625 -232.265625 109.675781 -232.265625 109.78125 -232.265625 C 109.894531 -232.265625 109.953125 -232.265625 109.953125 -232.265625 C 110.171875 -232.484375 110.171875 -232.484375 109.953125 -232.265625 C 109.953125 -232.484375 110.0625 -232.59375 110.28125 -232.59375 C 110.28125 -232.59375 110.28125 -232.484375 110.28125 -232.265625 C 110.488281 -232.265625 110.59375 -232.265625 110.59375 -232.265625 C 110.8125 -232.046875 110.921875 -231.9375 110.921875 -231.9375 C 110.921875 -231.9375 110.921875 -231.878906 110.921875 -231.765625 C 110.921875 -231.660156 110.921875 -231.609375 110.921875 -231.609375 L 197.78125 -14.96875 C 199.300781 -11.0625 201.90625 -7.75 205.59375 -5.03125 C 209.28125 -2.320312 213.070312 -0.96875 216.96875 -0.96875 Z M 216.96875 -0.96875 "/></g></g></g><g fill="#000000" fill-opacity="1"><g transform="translate(342.628024, 249.279445)"><g><path d="M 140.203125 -114.171875 C 150.179688 -113.523438 159.289062 -110.597656 167.53125 -105.390625 C 175.769531 -100.191406 182.328125 -93.304688 187.203125 -84.734375 C 192.085938 -76.171875 194.53125 -66.796875 194.53125 -56.609375 C 194.53125 -45.972656 191.925781 -36.265625 186.71875 -27.484375 C 181.507812 -18.703125 174.515625 -11.707031 165.734375 -6.5 C 156.953125 -1.300781 147.359375 1.296875 136.953125 1.296875 L 63.4375 0.96875 C 63.4375 0.96875 61.753906 0.96875 58.390625 0.96875 C 55.023438 0.96875 51.066406 0.96875 46.515625 0.96875 C 41.960938 0.96875 37.953125 0.96875 34.484375 0.96875 C 31.015625 0.96875 29.28125 0.96875 29.28125 0.96875 L 14.640625 0.96875 C 13.984375 0.96875 13.65625 0.644531 13.65625 0 C 13.65625 -0.644531 13.984375 -0.96875 14.640625 -0.96875 C 18.546875 -0.96875 21.796875 -2.320312 24.390625 -5.03125 C 26.992188 -7.75 28.296875 -10.953125 28.296875 -14.640625 L 28.296875 -211.765625 C 28.296875 -215.453125 26.992188 -218.597656 24.390625 -221.203125 C 21.796875 -223.804688 18.546875 -225.109375 14.640625 -225.109375 C 13.984375 -225.109375 13.65625 -225.539062 13.65625 -226.40625 C 13.65625 -227.050781 13.984375 -227.375 14.640625 -227.375 L 124.59375 -227.375 C 135.21875 -227.375 144.863281 -224.769531 153.53125 -219.5625 C 162.207031 -214.363281 169.148438 -207.425781 174.359375 -198.75 C 179.566406 -190.082031 182.171875 -180.4375 182.171875 -169.8125 C 182.171875 -156.582031 178.210938 -144.867188 170.296875 -134.671875 C 162.378906 -124.484375 152.347656 -117.648438 140.203125 -114.171875 Z M 136.953125 -0.96875 C 140.640625 -0.96875 144.109375 -3.515625 147.359375 -8.609375 C 150.609375 -13.710938 153.207031 -20.492188 155.15625 -28.953125 C 157.113281 -37.410156 158.09375 -46.628906 158.09375 -56.609375 C 158.09375 -66.578125 157.113281 -75.789062 155.15625 -84.25 C 153.207031 -92.707031 150.609375 -99.429688 147.359375 -104.421875 C 144.109375 -109.410156 140.640625 -111.90625 136.953125 -111.90625 L 94.015625 -111.90625 C 93.359375 -111.90625 93.03125 -112.335938 93.03125 -113.203125 C 93.03125 -113.847656 93.359375 -114.171875 94.015625 -114.171875 L 124.59375 -114.171875 C 128.28125 -114.171875 131.75 -116.71875 135 -121.8125 C 138.25 -126.914062 140.847656 -133.695312 142.796875 -142.15625 C 144.753906 -150.613281 145.734375 -159.832031 145.734375 -169.8125 C 145.734375 -179.78125 144.753906 -188.992188 142.796875 -197.453125 C 140.847656 -205.910156 138.25 -212.632812 135 -217.625 C 131.75 -222.613281 128.28125 -225.109375 124.59375 -225.109375 L 64.734375 -225.109375 L 64.734375 -0.96875 Z M 136.953125 -0.96875 "/></g></g></g><g fill="#000000" fill-opacity="1"><g transform="translate(500.389476, 249.279445)"><g><path d="M 216.96875 -0.96875 C 217.625 -0.96875 217.953125 -0.644531 217.953125 0 C 217.953125 0.863281 217.625 1.296875 216.96875 1.296875 L 150.9375 1.296875 C 150.289062 1.296875 149.96875 0.863281 149.96875 0 C 149.96875 -0.644531 150.289062 -0.96875 150.9375 -0.96875 C 154.40625 -0.96875 156.898438 -2.160156 158.421875 -4.546875 C 160.148438 -7.148438 160.257812 -10.40625 158.75 -14.3125 L 137.28125 -68.640625 L 46.1875 -68.640625 L 24.390625 -13.984375 C 22.878906 -10.296875 22.988281 -7.148438 24.71875 -4.546875 C 26.457031 -2.160156 28.953125 -0.96875 32.203125 -0.96875 C 33.066406 -0.96875 33.5 -0.644531 33.5 0 C 33.5 0.644531 33.066406 0.96875 32.203125 0.96875 L 2.921875 0.96875 C 2.273438 0.96875 1.953125 0.644531 1.953125 0 C 1.953125 -0.644531 2.273438 -0.96875 2.921875 -0.96875 C 6.828125 -0.96875 10.675781 -2.320312 14.46875 -5.03125 C 18.269531 -7.75 20.929688 -11.0625 22.453125 -14.96875 L 44.5625 -69.9375 C 44.5625 -70.15625 44.5625 -70.265625 44.5625 -70.265625 C 44.78125 -70.484375 44.78125 -70.484375 44.5625 -70.265625 C 44.5625 -70.265625 44.671875 -70.375 44.890625 -70.59375 C 45.109375 -70.59375 45.21875 -70.59375 45.21875 -70.59375 C 45.21875 -70.59375 45.328125 -70.59375 45.546875 -70.59375 L 136.296875 -70.59375 L 90.765625 -185.09375 C 90.546875 -185.3125 90.546875 -185.53125 90.765625 -185.75 L 108.96875 -231.609375 C 108.96875 -231.609375 108.96875 -231.71875 108.96875 -231.9375 C 108.96875 -231.9375 109.078125 -231.9375 109.296875 -231.9375 C 109.296875 -232.15625 109.296875 -232.265625 109.296875 -232.265625 C 109.296875 -232.265625 109.40625 -232.265625 109.625 -232.265625 C 109.625 -232.265625 109.675781 -232.265625 109.78125 -232.265625 C 109.894531 -232.265625 109.953125 -232.265625 109.953125 -232.265625 C 110.171875 -232.484375 110.171875 -232.484375 109.953125 -232.265625 C 109.953125 -232.484375 110.0625 -232.59375 110.28125 -232.59375 C 110.28125 -232.59375 110.28125 -232.484375 110.28125 -232.265625 C 110.488281 -232.265625 110.59375 -232.265625 110.59375 -232.265625 C 110.8125 -232.046875 110.921875 -231.9375 110.921875 -231.9375 C 110.921875 -231.9375 110.921875 -231.878906 110.921875 -231.765625 C 110.921875 -231.660156 110.921875 -231.609375 110.921875 -231.609375 L 197.78125 -14.96875 C 199.300781 -11.0625 201.90625 -7.75 205.59375 -5.03125 C 209.28125 -2.320312 213.070312 -0.96875 216.96875 -0.96875 Z M 216.96875 -0.96875 "/></g></g></g><g fill="#000000" fill-opacity="1"><g transform="translate(669.536122, 249.279445)"><g><path d="M 222.5 -114.171875 C 223.15625 -114.171875 223.484375 -113.847656 223.484375 -113.203125 C 223.484375 -112.335938 223.15625 -111.90625 222.5 -111.90625 C 218.59375 -111.90625 215.335938 -110.601562 212.734375 -108 C 210.140625 -105.394531 208.84375 -102.25 208.84375 -98.5625 L 208.84375 -32.203125 C 208.84375 -31.984375 208.734375 -31.765625 208.515625 -31.546875 C 198.535156 -20.492188 187.039062 -11.710938 174.03125 -5.203125 C 174.03125 -5.203125 173.921875 -5.203125 173.703125 -5.203125 C 173.492188 -5.203125 173.28125 -5.203125 173.0625 -5.203125 C 172.625 -5.421875 172.40625 -5.75 172.40625 -6.1875 L 172.40625 -98.5625 C 172.40625 -102.25 171.101562 -105.394531 168.5 -108 C 165.894531 -110.601562 162.75 -111.90625 159.0625 -111.90625 C 158.195312 -111.90625 157.765625 -112.335938 157.765625 -113.203125 C 157.765625 -113.847656 158.195312 -114.171875 159.0625 -114.171875 L 207.546875 -114.171875 C 207.546875 -114.171875 207.597656 -114.171875 207.703125 -114.171875 C 207.804688 -114.171875 207.859375 -114.171875 207.859375 -114.171875 Z M 126.546875 3.578125 C 127.191406 3.578125 127.515625 3.898438 127.515625 4.546875 C 127.515625 5.421875 127.191406 5.859375 126.546875 5.859375 C 110.929688 5.859375 96.34375 2.769531 82.78125 -3.40625 C 69.226562 -9.59375 57.25 -18.160156 46.84375 -29.109375 C 36.4375 -40.066406 28.300781 -52.753906 22.4375 -67.171875 C 16.582031 -81.597656 13.65625 -96.941406 13.65625 -113.203125 C 13.65625 -129.679688 16.582031 -145.128906 22.4375 -159.546875 C 28.300781 -173.972656 36.4375 -186.660156 46.84375 -197.609375 C 57.25 -208.566406 69.226562 -217.132812 82.78125 -223.3125 C 96.34375 -229.5 110.929688 -232.59375 126.546875 -232.59375 C 142.367188 -232.59375 157.4375 -229.226562 171.75 -222.5 C 171.75 -222.5 171.859375 -222.5 172.078125 -222.5 C 173.816406 -221.632812 175.769531 -220.550781 177.9375 -219.25 C 178.15625 -219.25 178.265625 -219.25 178.265625 -219.25 C 178.910156 -218.8125 179.453125 -218.488281 179.890625 -218.28125 L 180.859375 -217.625 C 188.671875 -213.289062 195.285156 -212.640625 200.703125 -215.671875 C 204.609375 -218.054688 206.5625 -221.632812 206.5625 -226.40625 C 206.5625 -227.050781 206.992188 -227.375 207.859375 -227.375 C 208.515625 -227.375 208.84375 -227.050781 208.84375 -226.40625 L 208.84375 -182.8125 C 208.84375 -182.164062 208.515625 -181.84375 207.859375 -181.84375 C 206.992188 -181.84375 206.5625 -182.164062 206.5625 -182.8125 C 206.5625 -185.632812 205.148438 -189.210938 202.328125 -193.546875 C 199.515625 -197.890625 195.882812 -202.175781 191.4375 -206.40625 C 186.988281 -210.632812 182.269531 -214.265625 177.28125 -217.296875 C 177.28125 -217.296875 177.175781 -217.40625 176.96875 -217.625 C 174.789062 -218.707031 172.835938 -219.679688 171.109375 -220.546875 C 170.890625 -220.546875 170.78125 -220.546875 170.78125 -220.546875 C 156.6875 -227.054688 141.941406 -230.3125 126.546875 -230.3125 C 116.566406 -230.3125 107.238281 -227.273438 98.5625 -221.203125 C 89.882812 -215.128906 82.1875 -206.722656 75.46875 -195.984375 C 68.75 -185.253906 63.546875 -172.835938 59.859375 -158.734375 C 56.171875 -144.640625 54.328125 -129.460938 54.328125 -113.203125 C 54.328125 -97.148438 56.171875 -82.078125 59.859375 -67.984375 C 63.546875 -53.890625 68.75 -41.472656 75.46875 -30.734375 C 82.1875 -20.003906 89.882812 -11.601562 98.5625 -5.53125 C 107.238281 0.539062 116.566406 3.578125 126.546875 3.578125 Z M 126.546875 3.578125 "/></g></g></g><g clip-path="url(#b46939bb34)"><g clip-path="url(#b7d2cab393)"><path fill="#000000" d="M 885.695312 210.488281 L 958.707031 210.488281 L 958.707031 283.5 L 885.695312 283.5 Z M 885.695312 210.488281 " fill-opacity="1" fill-rule="nonzero"/></g></g><g fill="#000000" fill-opacity="1"><g transform="translate(52.894006, 302.97165)"><g><path d="M 23.203125 -1.984375 C 23.203125 -1.585938 23.316406 -1.234375 23.546875 -0.921875 C 23.753906 -0.597656 24.035156 -0.363281 24.390625 -0.21875 L 24.90625 -0.03125 L 19.765625 -0.03125 L 20.265625 -0.21875 C 20.617188 -0.363281 20.910156 -0.597656 21.140625 -0.921875 C 21.359375 -1.234375 21.46875 -1.585938 21.46875 -1.984375 L 21.46875 -20.265625 L 12.78125 0 L 4.078125 -20.328125 L 4.078125 -1.984375 C 4.078125 -1.628906 4.179688 -1.304688 4.390625 -1.015625 C 4.578125 -0.691406 4.835938 -0.445312 5.171875 -0.28125 L 5.71875 -0.03125 L 1.546875 -0.03125 L 2.078125 -0.28125 C 2.421875 -0.445312 2.695312 -0.691406 2.90625 -1.015625 C 3.09375 -1.304688 3.1875 -1.628906 3.1875 -1.984375 L 3.1875 -20.140625 C 3.1875 -20.492188 3.09375 -20.828125 2.90625 -21.140625 C 2.695312 -21.441406 2.421875 -21.675781 2.078125 -21.84375 L 1.546875 -22.09375 L 5.203125 -22.09375 L 13.21875 -3.40625 L 21.234375 -22.09375 L 24.875 -22.09375 L 24.359375 -21.90625 C 24.003906 -21.757812 23.722656 -21.523438 23.515625 -21.203125 C 23.285156 -20.890625 23.171875 -20.535156 23.171875 -20.140625 L 23.171875 -1.953125 Z M 23.203125 -1.984375 "/></g></g></g><g fill="#000000" fill-opacity="1"><g transform="translate(101.183023, 302.97165)"><g><path d="M 11.671875 -19.34375 C 12.960938 -19.34375 14.21875 -19.132812 15.4375 -18.71875 C 16.65625 -18.289062 17.726562 -17.679688 18.65625 -16.890625 C 19.582031 -16.066406 20.328125 -15.054688 20.890625 -13.859375 C 21.460938 -12.640625 21.75 -11.238281 21.75 -9.65625 C 21.75 -8.082031 21.460938 -6.691406 20.890625 -5.484375 C 20.328125 -4.285156 19.582031 -3.289062 18.65625 -2.5 C 17.726562 -1.675781 16.65625 -1.050781 15.4375 -0.625 C 14.21875 -0.207031 12.960938 0 11.671875 0 C 10.367188 0 9.117188 -0.207031 7.921875 -0.625 C 6.703125 -1.050781 5.628906 -1.675781 4.703125 -2.5 C 3.773438 -3.289062 3.03125 -4.285156 2.46875 -5.484375 C 1.894531 -6.691406 1.609375 -8.082031 1.609375 -9.65625 C 1.609375 -11.238281 1.894531 -12.640625 2.46875 -13.859375 C 3.03125 -15.054688 3.773438 -16.066406 4.703125 -16.890625 C 5.628906 -17.679688 6.703125 -18.289062 7.921875 -18.71875 C 9.117188 -19.132812 10.367188 -19.34375 11.671875 -19.34375 Z M 11.671875 -0.796875 C 12.984375 -0.796875 14.175781 -1.035156 15.25 -1.515625 C 16.300781 -1.972656 17.203125 -2.601562 17.953125 -3.40625 C 18.691406 -4.207031 19.257812 -5.15625 19.65625 -6.25 C 20.0625 -7.320312 20.265625 -8.457031 20.265625 -9.65625 C 20.265625 -10.851562 20.0625 -12 19.65625 -13.09375 C 19.257812 -14.164062 18.691406 -15.101562 17.953125 -15.90625 C 17.203125 -16.707031 16.300781 -17.347656 15.25 -17.828125 C 14.175781 -18.296875 12.984375 -18.53125 11.671875 -18.53125 C 10.347656 -18.53125 9.160156 -18.296875 8.109375 -17.828125 C 7.035156 -17.347656 6.128906 -16.707031 5.390625 -15.90625 C 4.640625 -15.101562 4.0625 -14.164062 3.65625 -13.09375 C 3.257812 -12 3.0625 -10.851562 3.0625 -9.65625 C 3.0625 -8.457031 3.257812 -7.320312 3.65625 -6.25 C 4.0625 -5.15625 4.640625 -4.207031 5.390625 -3.40625 C 6.128906 -2.601562 7.035156 -1.972656 8.109375 -1.515625 C 9.160156 -1.035156 10.347656 -0.796875 11.671875 -0.796875 Z M 11.671875 -0.796875 "/></g></g></g><g fill="#000000" fill-opacity="1"><g transform="translate(146.316196, 302.97165)"><g><path d="M 18.5625 -16.921875 L 18.15625 -17.671875 C 18 -17.941406 17.796875 -18.164062 17.546875 -18.34375 C 17.273438 -18.488281 16.992188 -18.5625 16.703125 -18.5625 L 10.796875 -18.5625 L 10.796875 -1.765625 C 10.796875 -1.410156 10.898438 -1.097656 11.109375 -0.828125 C 11.296875 -0.523438 11.550781 -0.3125 11.875 -0.1875 L 12.3125 -0.03125 L 7.828125 -0.03125 L 8.265625 -0.1875 C 8.585938 -0.3125 8.851562 -0.523438 9.0625 -0.828125 C 9.25 -1.097656 9.34375 -1.410156 9.34375 -1.765625 L 9.34375 -18.5625 L 3.4375 -18.5625 C 3.144531 -18.5625 2.875 -18.488281 2.625 -18.34375 C 2.34375 -18.164062 2.128906 -17.941406 1.984375 -17.671875 L 1.578125 -16.921875 L 1.734375 -19.34375 L 18.40625 -19.34375 Z M 18.5625 -16.921875 "/></g></g></g><g fill="#000000" fill-opacity="1"><g transform="translate(188.29351, 302.97165)"><g><path d="M 18.96875 -1.734375 C 18.96875 -1.378906 19.070312 -1.066406 19.28125 -0.796875 C 19.46875 -0.492188 19.722656 -0.28125 20.046875 -0.15625 L 20.484375 0 L 16 0 L 16.4375 -0.15625 C 16.757812 -0.28125 17.023438 -0.492188 17.234375 -0.796875 C 17.421875 -1.066406 17.515625 -1.378906 17.515625 -1.734375 L 17.515625 -9.6875 L 4.546875 -9.6875 L 4.546875 -1.734375 C 4.546875 -1.378906 4.648438 -1.066406 4.859375 -0.796875 C 5.046875 -0.492188 5.300781 -0.28125 5.625 -0.15625 L 6.0625 0 L 1.578125 0 L 2.015625 -0.15625 C 2.335938 -0.28125 2.601562 -0.492188 2.8125 -0.796875 C 3 -1.066406 3.09375 -1.378906 3.09375 -1.734375 L 3.09375 -17.640625 C 3.09375 -18.003906 3 -18.332031 2.8125 -18.625 C 2.601562 -18.894531 2.335938 -19.09375 2.015625 -19.21875 L 1.578125 -19.375 L 6.0625 -19.375 L 5.625 -19.21875 C 5.300781 -19.09375 5.046875 -18.894531 4.859375 -18.625 C 4.648438 -18.332031 4.546875 -18.003906 4.546875 -17.640625 L 4.546875 -10.484375 L 17.515625 -10.484375 L 17.515625 -17.640625 C 17.515625 -18.003906 17.421875 -18.332031 17.234375 -18.625 C 17.023438 -18.894531 16.757812 -19.09375 16.4375 -19.21875 L 16 -19.375 L 20.484375 -19.375 L 20.046875 -19.21875 C 19.722656 -19.09375 19.46875 -18.894531 19.28125 -18.625 C 19.070312 -18.332031 18.96875 -18.003906 18.96875 -17.640625 Z M 18.96875 -1.734375 "/></g></g></g><g fill="#000000" fill-opacity="1"><g transform="translate(232.164342, 302.97165)"><g><path d="M 14.828125 -3.21875 L 13.953125 0 L 1.515625 0 L 1.953125 -0.15625 C 2.273438 -0.28125 2.539062 -0.492188 2.75 -0.796875 C 2.9375 -1.066406 3.03125 -1.378906 3.03125 -1.734375 L 3.03125 -17.640625 C 3.03125 -18.003906 2.9375 -18.332031 2.75 -18.625 C 2.539062 -18.894531 2.273438 -19.09375 1.953125 -19.21875 L 1.515625 -19.375 L 13.453125 -19.375 L 13.609375 -16.953125 L 13.1875 -17.703125 C 13.039062 -17.972656 12.84375 -18.195312 12.59375 -18.375 C 12.320312 -18.519531 12.035156 -18.59375 11.734375 -18.59375 L 4.515625 -18.59375 L 4.515625 -10.390625 L 9.15625 -10.390625 C 9.488281 -10.390625 9.789062 -10.484375 10.0625 -10.671875 C 10.34375 -10.835938 10.554688 -11.066406 10.703125 -11.359375 L 10.890625 -11.734375 L 10.890625 -8.421875 L 10.703125 -8.8125 C 10.554688 -9.101562 10.34375 -9.34375 10.0625 -9.53125 C 9.789062 -9.695312 9.488281 -9.78125 9.15625 -9.78125 L 4.515625 -9.78125 L 4.515625 -0.828125 L 11.9375 -0.828125 C 12.832031 -0.828125 13.535156 -1.191406 14.046875 -1.921875 Z M 14.828125 -3.21875 "/></g></g></g><g fill="#000000" fill-opacity="1"><g transform="translate(270.449313, 302.97165)"><g><path d="M 17.734375 -0.03125 L 14.828125 -0.03125 L 10.21875 -8.453125 C 9.945312 -8.941406 9.539062 -9.1875 9 -9.1875 L 4.546875 -9.1875 L 4.546875 -1.734375 C 4.546875 -1.378906 4.648438 -1.066406 4.859375 -0.796875 C 5.046875 -0.492188 5.300781 -0.28125 5.625 -0.15625 L 6.0625 0 L 1.578125 0 L 2.015625 -0.15625 C 2.335938 -0.28125 2.601562 -0.492188 2.8125 -0.796875 C 3 -1.066406 3.09375 -1.378906 3.09375 -1.734375 L 3.09375 -17.640625 C 3.09375 -18.003906 3 -18.332031 2.8125 -18.625 C 2.601562 -18.894531 2.335938 -19.09375 2.015625 -19.21875 L 1.578125 -19.375 L 8.515625 -19.375 C 9.890625 -19.375 11.007812 -19.25 11.875 -19 C 12.726562 -18.726562 13.410156 -18.359375 13.921875 -17.890625 C 14.398438 -17.429688 14.734375 -16.894531 14.921875 -16.28125 C 15.117188 -15.65625 15.21875 -14.992188 15.21875 -14.296875 C 15.21875 -13.734375 15.164062 -13.195312 15.0625 -12.6875 C 14.925781 -12.164062 14.710938 -11.691406 14.421875 -11.265625 C 14.109375 -10.828125 13.6875 -10.445312 13.15625 -10.125 C 12.632812 -9.8125 11.960938 -9.582031 11.140625 -9.4375 C 11.285156 -9.394531 11.410156 -9.3125 11.515625 -9.1875 C 11.617188 -9.039062 11.691406 -8.914062 11.734375 -8.8125 C 11.992188 -8.320312 12.351562 -7.664062 12.8125 -6.84375 C 13.257812 -6.007812 13.703125 -5.191406 14.140625 -4.390625 C 14.660156 -3.441406 15.195312 -2.453125 15.75 -1.421875 C 16.039062 -0.867188 16.484375 -0.476562 17.078125 -0.25 Z M 8.484375 -10 C 9.160156 -10 9.816406 -10.050781 10.453125 -10.15625 C 11.078125 -10.269531 11.632812 -10.484375 12.125 -10.796875 C 12.601562 -11.085938 12.988281 -11.519531 13.28125 -12.09375 C 13.582031 -12.632812 13.734375 -13.367188 13.734375 -14.296875 C 13.734375 -15.222656 13.582031 -15.96875 13.28125 -16.53125 C 12.988281 -17.082031 12.601562 -17.515625 12.125 -17.828125 C 11.632812 -18.128906 11.078125 -18.332031 10.453125 -18.4375 C 9.816406 -18.539062 9.160156 -18.59375 8.484375 -18.59375 L 4.515625 -18.59375 L 4.515625 -10 Z M 8.484375 -10 "/></g></g></g><g fill="#000000" fill-opacity="1"><g transform="translate(311.606109, 302.97165)"><g><path d="M 2.96875 -2.78125 C 3.445312 -2.78125 3.835938 -2.628906 4.140625 -2.328125 C 4.429688 -2.035156 4.578125 -1.585938 4.578125 -0.984375 C 4.578125 -0.472656 4.523438 -0.0390625 4.421875 0.3125 C 4.296875 0.675781 4.160156 0.972656 4.015625 1.203125 C 3.835938 1.472656 3.644531 1.703125 3.4375 1.890625 L 3.15625 1.671875 C 3.363281 1.296875 3.476562 0.9375 3.5 0.59375 C 3.5 0.257812 3.476562 0.0390625 3.4375 -0.0625 C 3.332031 -0.0195312 3.175781 0 2.96875 0 C 2.59375 0 2.265625 -0.132812 1.984375 -0.40625 C 1.710938 -0.6875 1.578125 -1.015625 1.578125 -1.390625 C 1.578125 -1.765625 1.710938 -2.09375 1.984375 -2.375 C 2.265625 -2.644531 2.59375 -2.78125 2.96875 -2.78125 Z M 2.96875 -2.78125 "/></g></g></g><g fill="#000000" fill-opacity="1"><g transform="translate(339.571462, 302.97165)"><g/></g></g><g fill="#000000" fill-opacity="1"><g transform="translate(372.270572, 302.97165)"><g><path d="M 14.265625 -12.0625 C 15.773438 -11.613281 16.953125 -10.90625 17.796875 -9.9375 C 18.617188 -8.945312 19.03125 -7.726562 19.03125 -6.28125 C 19.03125 -4.300781 18.273438 -2.765625 16.765625 -1.671875 C 15.222656 -0.578125 13.097656 -0.03125 10.390625 -0.03125 L 1.578125 -0.03125 L 2.078125 -0.21875 C 2.441406 -0.363281 2.738281 -0.597656 2.96875 -0.921875 C 3.175781 -1.234375 3.28125 -1.585938 3.28125 -1.984375 L 3.28125 -20.140625 C 3.28125 -20.535156 3.175781 -20.890625 2.96875 -21.203125 C 2.738281 -21.523438 2.441406 -21.757812 2.078125 -21.90625 L 1.578125 -22.09375 L 9.5 -22.09375 C 10.550781 -22.09375 11.539062 -22.03125 12.46875 -21.90625 C 13.394531 -21.757812 14.203125 -21.492188 14.890625 -21.109375 C 15.566406 -20.710938 16.101562 -20.144531 16.5 -19.40625 C 16.90625 -18.675781 17.109375 -17.707031 17.109375 -16.5 C 17.109375 -15.5 16.851562 -14.628906 16.34375 -13.890625 C 15.84375 -13.128906 15.148438 -12.507812 14.265625 -12.03125 Z M 4.953125 -12.34375 L 10.1875 -12.34375 C 10.882812 -12.34375 11.550781 -12.40625 12.1875 -12.53125 C 12.8125 -12.632812 13.367188 -12.84375 13.859375 -13.15625 C 14.335938 -13.457031 14.726562 -13.878906 15.03125 -14.421875 C 15.300781 -14.972656 15.4375 -15.675781 15.4375 -16.53125 C 15.4375 -17.457031 15.300781 -18.226562 15.03125 -18.84375 C 14.726562 -19.4375 14.347656 -19.910156 13.890625 -20.265625 C 13.398438 -20.617188 12.851562 -20.867188 12.25 -21.015625 C 11.613281 -21.160156 10.953125 -21.234375 10.265625 -21.234375 L 4.984375 -21.234375 Z M 10.890625 -0.890625 C 11.523438 -0.890625 12.21875 -0.972656 12.96875 -1.140625 C 13.707031 -1.285156 14.40625 -1.566406 15.0625 -1.984375 C 15.707031 -2.390625 16.253906 -2.9375 16.703125 -3.625 C 17.117188 -4.320312 17.328125 -5.195312 17.328125 -6.25 C 17.328125 -8.125 16.75 -9.460938 15.59375 -10.265625 C 14.4375 -11.035156 12.867188 -11.421875 10.890625 -11.421875 L 4.953125 -11.421875 L 4.953125 -0.921875 L 10.890625 -0.921875 Z M 10.890625 -0.890625 "/></g></g></g><g fill="#000000" fill-opacity="1"><g transform="translate(414.689698, 302.97165)"><g><path d="M 16.640625 -0.28125 C 16.867188 -0.363281 17.035156 -0.507812 17.140625 -0.71875 C 17.222656 -0.914062 17.222656 -1.128906 17.140625 -1.359375 L 14.359375 -7.765625 L 6.90625 -7.765625 L 4.140625 -1.359375 C 4.054688 -1.148438 4.054688 -0.945312 4.140625 -0.75 C 4.222656 -0.539062 4.367188 -0.382812 4.578125 -0.28125 L 5.203125 0 L 1.546875 0 L 2.171875 -0.28125 C 2.785156 -0.570312 3.207031 -1.023438 3.4375 -1.640625 L 11.015625 -19.34375 L 18.65625 -1.546875 C 18.90625 -0.867188 19.390625 -0.394531 20.109375 -0.125 L 20.421875 0 L 15.9375 0 L 16.703125 -0.28125 Z M 14.015625 -8.546875 L 10.609375 -16.40625 L 7.234375 -8.546875 Z M 14.015625 -8.546875 "/></g></g></g><g fill="#000000" fill-opacity="1"><g transform="translate(458.528989, 302.97165)"><g><path d="M 12.65625 -10.546875 C 13.976562 -10.140625 15.007812 -9.519531 15.75 -8.6875 C 16.46875 -7.820312 16.828125 -6.753906 16.828125 -5.484375 C 16.828125 -3.765625 16.160156 -2.421875 14.828125 -1.453125 C 13.484375 -0.484375 11.632812 0 9.28125 0 L 1.578125 0 L 2.015625 -0.15625 C 2.335938 -0.28125 2.601562 -0.492188 2.8125 -0.796875 C 3 -1.066406 3.09375 -1.378906 3.09375 -1.734375 L 3.09375 -17.640625 C 3.09375 -18.003906 3 -18.332031 2.8125 -18.625 C 2.601562 -18.894531 2.335938 -19.09375 2.015625 -19.21875 L 1.578125 -19.375 L 8.515625 -19.375 C 9.441406 -19.375 10.316406 -19.320312 11.140625 -19.21875 C 11.941406 -19.09375 12.644531 -18.863281 13.25 -18.53125 C 13.84375 -18.164062 14.316406 -17.671875 14.671875 -17.046875 C 15.015625 -16.390625 15.1875 -15.535156 15.1875 -14.484375 C 15.1875 -13.597656 14.960938 -12.832031 14.515625 -12.1875 C 14.054688 -11.507812 13.445312 -10.960938 12.6875 -10.546875 Z M 4.515625 -10.828125 L 9.09375 -10.828125 C 9.695312 -10.828125 10.273438 -10.878906 10.828125 -10.984375 C 11.367188 -11.066406 11.851562 -11.242188 12.28125 -11.515625 C 12.695312 -11.796875 13.03125 -12.175781 13.28125 -12.65625 C 13.539062 -13.113281 13.671875 -13.722656 13.671875 -14.484375 C 13.671875 -15.285156 13.550781 -15.945312 13.3125 -16.46875 C 13.0625 -17 12.726562 -17.421875 12.3125 -17.734375 C 11.882812 -18.054688 11.398438 -18.28125 10.859375 -18.40625 C 10.304688 -18.53125 9.726562 -18.59375 9.125 -18.59375 L 4.515625 -18.59375 Z M 9.75 -0.828125 C 10.300781 -0.828125 10.898438 -0.898438 11.546875 -1.046875 C 12.203125 -1.171875 12.8125 -1.410156 13.375 -1.765625 C 13.945312 -2.117188 14.421875 -2.601562 14.796875 -3.21875 C 15.179688 -3.832031 15.375 -4.601562 15.375 -5.53125 C 15.375 -7.164062 14.867188 -8.332031 13.859375 -9.03125 C 12.847656 -9.695312 11.46875 -10.03125 9.71875 -10.03125 L 4.515625 -10.03125 L 4.515625 -0.828125 Z M 9.75 -0.828125 "/></g></g></g><g fill="#000000" fill-opacity="1"><g transform="translate(498.770579, 302.97165)"><g><path d="M 20.046875 -19.3125 L 19.59375 -19.125 C 19.03125 -18.875 18.570312 -18.484375 18.21875 -17.953125 L 11.609375 -7.984375 L 11.609375 -1.734375 C 11.609375 -1.378906 11.71875 -1.066406 11.9375 -0.796875 C 12.125 -0.492188 12.375 -0.28125 12.6875 -0.15625 L 13.125 0 L 8.640625 0 L 9.09375 -0.15625 C 9.40625 -0.28125 9.664062 -0.492188 9.875 -0.796875 C 10.0625 -1.066406 10.15625 -1.378906 10.15625 -1.734375 L 10.15625 -8.015625 L 3.5625 -17.953125 C 3.1875 -18.546875 2.648438 -18.96875 1.953125 -19.21875 L 1.640625 -19.34375 L 6.125 -19.34375 L 5.171875 -19 C 5.046875 -18.957031 4.960938 -18.875 4.921875 -18.75 C 4.878906 -18.601562 4.898438 -18.476562 4.984375 -18.375 L 11.234375 -8.9375 L 17.421875 -18.3125 C 17.484375 -18.414062 17.492188 -18.53125 17.453125 -18.65625 C 17.410156 -18.78125 17.335938 -18.863281 17.234375 -18.90625 L 16.28125 -19.34375 Z M 20.046875 -19.3125 "/></g></g></g><g fill="#000000" fill-opacity="1"><g transform="translate(542.104912, 302.97165)"><g><path d="M 2.96875 -2.78125 C 3.445312 -2.78125 3.835938 -2.628906 4.140625 -2.328125 C 4.429688 -2.035156 4.578125 -1.585938 4.578125 -0.984375 C 4.578125 -0.472656 4.523438 -0.0390625 4.421875 0.3125 C 4.296875 0.675781 4.160156 0.972656 4.015625 1.203125 C 3.835938 1.472656 3.644531 1.703125 3.4375 1.890625 L 3.15625 1.671875 C 3.363281 1.296875 3.476562 0.9375 3.5 0.59375 C 3.5 0.257812 3.476562 0.0390625 3.4375 -0.0625 C 3.332031 -0.0195312 3.175781 0 2.96875 0 C 2.59375 0 2.265625 -0.132812 1.984375 -0.40625 C 1.710938 -0.6875 1.578125 -1.015625 1.578125 -1.390625 C 1.578125 -1.765625 1.710938 -2.09375 1.984375 -2.375 C 2.265625 -2.644531 2.59375 -2.78125 2.96875 -2.78125 Z M 2.96875 -2.78125 "/></g></g></g><g fill="#000000" fill-opacity="1"><g transform="translate(570.070242, 302.97165)"><g/></g></g><g fill="#000000" fill-opacity="1"><g transform="translate(602.769352, 302.97165)"><g><path d="M 14.265625 -12.0625 C 15.773438 -11.613281 16.953125 -10.90625 17.796875 -9.9375 C 18.617188 -8.945312 19.03125 -7.726562 19.03125 -6.28125 C 19.03125 -4.300781 18.273438 -2.765625 16.765625 -1.671875 C 15.222656 -0.578125 13.097656 -0.03125 10.390625 -0.03125 L 1.578125 -0.03125 L 2.078125 -0.21875 C 2.441406 -0.363281 2.738281 -0.597656 2.96875 -0.921875 C 3.175781 -1.234375 3.28125 -1.585938 3.28125 -1.984375 L 3.28125 -20.140625 C 3.28125 -20.535156 3.175781 -20.890625 2.96875 -21.203125 C 2.738281 -21.523438 2.441406 -21.757812 2.078125 -21.90625 L 1.578125 -22.09375 L 9.5 -22.09375 C 10.550781 -22.09375 11.539062 -22.03125 12.46875 -21.90625 C 13.394531 -21.757812 14.203125 -21.492188 14.890625 -21.109375 C 15.566406 -20.710938 16.101562 -20.144531 16.5 -19.40625 C 16.90625 -18.675781 17.109375 -17.707031 17.109375 -16.5 C 17.109375 -15.5 16.851562 -14.628906 16.34375 -13.890625 C 15.84375 -13.128906 15.148438 -12.507812 14.265625 -12.03125 Z M 4.953125 -12.34375 L 10.1875 -12.34375 C 10.882812 -12.34375 11.550781 -12.40625 12.1875 -12.53125 C 12.8125 -12.632812 13.367188 -12.84375 13.859375 -13.15625 C 14.335938 -13.457031 14.726562 -13.878906 15.03125 -14.421875 C 15.300781 -14.972656 15.4375 -15.675781 15.4375 -16.53125 C 15.4375 -17.457031 15.300781 -18.226562 15.03125 -18.84375 C 14.726562 -19.4375 14.347656 -19.910156 13.890625 -20.265625 C 13.398438 -20.617188 12.851562 -20.867188 12.25 -21.015625 C 11.613281 -21.160156 10.953125 -21.234375 10.265625 -21.234375 L 4.984375 -21.234375 Z M 10.890625 -0.890625 C 11.523438 -0.890625 12.21875 -0.972656 12.96875 -1.140625 C 13.707031 -1.285156 14.40625 -1.566406 15.0625 -1.984375 C 15.707031 -2.390625 16.253906 -2.9375 16.703125 -3.625 C 17.117188 -4.320312 17.328125 -5.195312 17.328125 -6.25 C 17.328125 -8.125 16.75 -9.460938 15.59375 -10.265625 C 14.4375 -11.035156 12.867188 -11.421875 10.890625 -11.421875 L 4.953125 -11.421875 L 4.953125 -0.921875 L 10.890625 -0.921875 Z M 10.890625 -0.890625 "/></g></g></g><g fill="#000000" fill-opacity="1"><g transform="translate(645.188477, 302.97165)"><g><path d="M 14.828125 -3.21875 L 13.953125 0 L 1.515625 0 L 1.953125 -0.15625 C 2.273438 -0.28125 2.539062 -0.492188 2.75 -0.796875 C 2.9375 -1.066406 3.03125 -1.378906 3.03125 -1.734375 L 3.03125 -17.640625 C 3.03125 -18.003906 2.9375 -18.332031 2.75 -18.625 C 2.539062 -18.894531 2.273438 -19.09375 1.953125 -19.21875 L 1.515625 -19.375 L 13.453125 -19.375 L 13.609375 -16.953125 L 13.1875 -17.703125 C 13.039062 -17.972656 12.84375 -18.195312 12.59375 -18.375 C 12.320312 -18.519531 12.035156 -18.59375 11.734375 -18.59375 L 4.515625 -18.59375 L 4.515625 -10.390625 L 9.15625 -10.390625 C 9.488281 -10.390625 9.789062 -10.484375 10.0625 -10.671875 C 10.34375 -10.835938 10.554688 -11.066406 10.703125 -11.359375 L 10.890625 -11.734375 L 10.890625 -8.421875 L 10.703125 -8.8125 C 10.554688 -9.101562 10.34375 -9.34375 10.0625 -9.53125 C 9.789062 -9.695312 9.488281 -9.78125 9.15625 -9.78125 L 4.515625 -9.78125 L 4.515625 -0.828125 L 11.9375 -0.828125 C 12.832031 -0.828125 13.535156 -1.191406 14.046875 -1.921875 Z M 14.828125 -3.21875 "/></g></g></g><g fill="#000000" fill-opacity="1"><g transform="translate(683.473448, 302.97165)"><g><path d="M 16.640625 -0.28125 C 16.867188 -0.363281 17.035156 -0.507812 17.140625 -0.71875 C 17.222656 -0.914062 17.222656 -1.128906 17.140625 -1.359375 L 14.359375 -7.765625 L 6.90625 -7.765625 L 4.140625 -1.359375 C 4.054688 -1.148438 4.054688 -0.945312 4.140625 -0.75 C 4.222656 -0.539062 4.367188 -0.382812 4.578125 -0.28125 L 5.203125 0 L 1.546875 0 L 2.171875 -0.28125 C 2.785156 -0.570312 3.207031 -1.023438 3.4375 -1.640625 L 11.015625 -19.34375 L 18.65625 -1.546875 C 18.90625 -0.867188 19.390625 -0.394531 20.109375 -0.125 L 20.421875 0 L 15.9375 0 L 16.703125 -0.28125 Z M 14.015625 -8.546875 L 10.609375 -16.40625 L 7.234375 -8.546875 Z M 14.015625 -8.546875 "/></g></g></g><g fill="#000000" fill-opacity="1"><g transform="translate(727.312694, 302.97165)"><g><path d="M 18.65625 -19.375 L 18.1875 -19.15625 C 17.882812 -19.007812 17.648438 -18.800781 17.484375 -18.53125 C 17.296875 -18.25 17.203125 -17.953125 17.203125 -17.640625 L 17.203125 -6.46875 C 17.203125 -5.582031 17.035156 -4.753906 16.703125 -3.984375 C 16.359375 -3.179688 15.894531 -2.484375 15.3125 -1.890625 C 14.71875 -1.304688 14.03125 -0.84375 13.25 -0.5 C 12.457031 -0.164062 11.617188 0 10.734375 0 L 9.59375 0 C 8.707031 0 7.878906 -0.164062 7.109375 -0.5 C 6.304688 -0.84375 5.609375 -1.304688 5.015625 -1.890625 C 4.429688 -2.484375 3.96875 -3.179688 3.625 -3.984375 C 3.289062 -4.753906 3.125 -5.582031 3.125 -6.46875 L 3.125 -17.640625 C 3.125 -18.003906 3.03125 -18.332031 2.84375 -18.625 C 2.632812 -18.894531 2.367188 -19.09375 2.046875 -19.21875 L 1.609375 -19.375 L 6.09375 -19.375 L 5.65625 -19.21875 C 5.332031 -19.09375 5.078125 -18.894531 4.890625 -18.625 C 4.679688 -18.332031 4.578125 -18.003906 4.578125 -17.640625 L 4.578125 -6.46875 C 4.578125 -5.601562 4.722656 -4.828125 5.015625 -4.140625 C 5.304688 -3.441406 5.6875 -2.851562 6.15625 -2.375 C 6.59375 -1.863281 7.097656 -1.472656 7.671875 -1.203125 C 8.210938 -0.929688 8.757812 -0.796875 9.3125 -0.796875 L 11.328125 -0.796875 C 12.023438 -0.796875 12.675781 -0.960938 13.28125 -1.296875 C 13.894531 -1.609375 14.429688 -2.039062 14.890625 -2.59375 C 15.359375 -3.113281 15.726562 -3.710938 16 -4.390625 C 16.25 -5.054688 16.375 -5.738281 16.375 -6.4375 L 16.375 -17.609375 C 16.375 -17.921875 16.289062 -18.21875 16.125 -18.5 C 15.9375 -18.769531 15.695312 -18.976562 15.40625 -19.125 L 14.921875 -19.34375 Z M 18.65625 -19.375 "/></g></g></g><g fill="#000000" fill-opacity="1"><g transform="translate(769.289987, 302.97165)"><g><path d="M 18.5625 -16.921875 L 18.15625 -17.671875 C 18 -17.941406 17.796875 -18.164062 17.546875 -18.34375 C 17.273438 -18.488281 16.992188 -18.5625 16.703125 -18.5625 L 10.796875 -18.5625 L 10.796875 -1.765625 C 10.796875 -1.410156 10.898438 -1.097656 11.109375 -0.828125 C 11.296875 -0.523438 11.550781 -0.3125 11.875 -0.1875 L 12.3125 -0.03125 L 7.828125 -0.03125 L 8.265625 -0.1875 C 8.585938 -0.3125 8.851562 -0.523438 9.0625 -0.828125 C 9.25 -1.097656 9.34375 -1.410156 9.34375 -1.765625 L 9.34375 -18.5625 L 3.4375 -18.5625 C 3.144531 -18.5625 2.875 -18.488281 2.625 -18.34375 C 2.34375 -18.164062 2.128906 -17.941406 1.984375 -17.671875 L 1.578125 -16.921875 L 1.734375 -19.34375 L 18.40625 -19.34375 Z M 18.5625 -16.921875 "/></g></g></g><g fill="#000000" fill-opacity="1"><g transform="translate(811.267279, 302.97165)"><g><path d="M 20.046875 -19.3125 L 19.59375 -19.125 C 19.03125 -18.875 18.570312 -18.484375 18.21875 -17.953125 L 11.609375 -7.984375 L 11.609375 -1.734375 C 11.609375 -1.378906 11.71875 -1.066406 11.9375 -0.796875 C 12.125 -0.492188 12.375 -0.28125 12.6875 -0.15625 L 13.125 0 L 8.640625 0 L 9.09375 -0.15625 C 9.40625 -0.28125 9.664062 -0.492188 9.875 -0.796875 C 10.0625 -1.066406 10.15625 -1.378906 10.15625 -1.734375 L 10.15625 -8.015625 L 3.5625 -17.953125 C 3.1875 -18.546875 2.648438 -18.96875 1.953125 -19.21875 L 1.640625 -19.34375 L 6.125 -19.34375 L 5.171875 -19 C 5.046875 -18.957031 4.960938 -18.875 4.921875 -18.75 C 4.878906 -18.601562 4.898438 -18.476562 4.984375 -18.375 L 11.234375 -8.9375 L 17.421875 -18.3125 C 17.484375 -18.414062 17.492188 -18.53125 17.453125 -18.65625 C 17.410156 -18.78125 17.335938 -18.863281 17.234375 -18.90625 L 16.28125 -19.34375 Z M 20.046875 -19.3125 "/></g></g></g></svg>